<svg xmlns="http://www.w3.org/2000/svg" width="20" height="18" viewBox="0 0 20 18" fill="none">
<path d="M19.8675 8.54748C19.0612 6.84876 18.1017 5.46336 16.9889 4.39128L15.8219 5.55832C16.7735 6.46777 17.6025 7.65752 18.3193 9.13925C16.4109 13.089 13.702 14.9653 9.99999 14.9653C8.88876 14.9653 7.86523 14.7942 6.9294 14.4519L5.66488 15.7165C6.96465 16.3167 8.40968 16.6167 9.99999 16.6167C14.4085 16.6167 17.6977 14.3207 19.8675 9.72874C19.9548 9.54406 20 9.34235 20 9.13811C20 8.93386 19.9548 8.73216 19.8675 8.54748ZM18.4094 1.19293L17.4316 0.213973C17.4146 0.196912 17.3943 0.183378 17.372 0.174144C17.3498 0.164909 17.3259 0.160156 17.3018 0.160156C17.2777 0.160156 17.2538 0.164909 17.2315 0.174144C17.2092 0.183378 17.189 0.196912 17.172 0.213973L14.6633 2.72146C13.2802 2.01499 11.7258 1.66176 9.99999 1.66176C5.59148 1.66176 2.3023 3.95777 0.132451 8.54977C0.0452334 8.73445 0 8.93616 0 9.1404C0 9.34464 0.0452334 9.54635 0.132451 9.73103C0.99932 11.5568 2.04296 13.0203 3.26336 14.1214L0.836161 16.5479C0.801775 16.5823 0.782458 16.629 0.782458 16.6776C0.782458 16.7263 0.801775 16.7729 0.836161 16.8074L1.81535 17.7865C1.84975 17.8209 1.89641 17.8402 1.94505 17.8402C1.9937 17.8402 2.04035 17.8209 2.07476 17.7865L18.4094 1.45258C18.4265 1.43553 18.44 1.4153 18.4492 1.39302C18.4585 1.37074 18.4632 1.34687 18.4632 1.32275C18.4632 1.29864 18.4585 1.27476 18.4492 1.25248C18.44 1.23021 18.4265 1.20997 18.4094 1.19293ZM1.6807 9.13925C3.59136 5.18949 6.30023 3.31323 9.99999 3.31323C11.251 3.31323 12.3884 3.52792 13.4204 3.96442L11.8079 5.57689C11.0442 5.16945 10.1699 5.01823 9.31372 5.14555C8.45759 5.27287 7.66505 5.67199 7.05301 6.28403C6.44098 6.89606 6.04186 7.6886 5.91454 8.54474C5.78722 9.40087 5.93843 10.2753 6.34588 11.0389L4.43247 12.9523C3.37346 12.0176 2.46057 10.7513 1.6807 9.13925ZM7.33928 9.13925C7.33969 8.73479 7.43549 8.33613 7.61891 7.97565C7.80234 7.61517 8.0682 7.30304 8.39492 7.06462C8.72164 6.82619 9.09999 6.6682 9.49924 6.60347C9.89849 6.53875 10.3074 6.56911 10.6927 6.6921L7.46108 9.9237C7.38008 9.67011 7.33899 9.40547 7.33928 9.13925Z" fill="#9AA9B8"/>
<path d="M9.90807 11.708C9.82871 11.708 9.75049 11.7043 9.67296 11.6972L8.46143 12.9087C9.19011 13.1878 9.98404 13.2498 10.7472 13.0873C11.5104 12.9248 12.2102 12.5446 12.7619 11.9929C13.3137 11.4411 13.6938 10.7414 13.8563 9.97818C14.0189 9.215 13.9568 8.42107 13.6778 7.69238L12.4662 8.90392C12.4734 8.98145 12.477 9.05966 12.477 9.13903C12.4772 9.47644 12.4109 9.81057 12.2818 10.1223C12.1528 10.4341 11.9636 10.7174 11.725 10.956C11.4864 11.1945 11.2031 11.3838 10.8914 11.5128C10.5796 11.6418 10.2455 11.7082 9.90807 11.708Z" fill="#9AA9B8"/>
</svg>