<svg xmlns="http://www.w3.org/2000/svg" width="24" height="26" viewBox="0 0 24 26" fill="none">
<path fill-rule="evenodd" clip-rule="evenodd" d="M12 4.72412C9.79 4.72412 8 6.57585 8 8.86205C8 11.1483 9.79 13 12 13C14.21 13 16 11.1483 16 8.86205C16 6.57585 14.21 4.72412 12 4.72412ZM14 8.86205C14 7.72412 13.1 6.79309 12 6.79309C10.9 6.79309 10 7.72412 10 8.86205C10 9.99998 10.9 10.931 12 10.931C13.1 10.931 14 9.99998 14 8.86205ZM18 19.2069C17.8 18.4724 14.7 17.1379 12 17.1379C9.31 17.1379 6.23 18.4621 6 19.2069H18ZM4 19.2069C4 16.4552 9.33 15.0689 12 15.0689C14.67 15.0689 20 16.4552 20 19.2069V21.2758H4V19.2069Z" fill="#9AA9B8"/>
</svg>
