<svg width="56" height="56" viewBox="0 0 56 56" fill="none" xmlns="http://www.w3.org/2000/svg">
<path d="M51.3332 25.8529V27.9995C51.3303 33.0312 49.701 37.9271 46.6883 41.9571C43.6756 45.9871 39.4408 48.9353 34.6157 50.362C29.7905 51.7886 24.6334 51.6173 19.9136 49.8736C15.1938 48.1298 11.164 44.9071 8.42541 40.686C5.68679 36.4649 4.38602 31.4717 4.71708 26.4509C5.04815 21.4302 6.99332 16.6509 10.2625 12.826C13.5317 9.0011 17.9497 6.33541 22.8576 5.22653C27.7656 4.11764 32.9005 4.62497 37.4965 6.67286" fill="#DCE8F3"/>
<path d="M51.3332 25.8529V27.9995C51.3303 33.0312 49.701 37.9271 46.6883 41.9571C43.6756 45.9871 39.4408 48.9353 34.6157 50.362C29.7905 51.7886 24.6334 51.6173 19.9136 49.8736C15.1938 48.1298 11.164 44.9071 8.42541 40.686C5.68679 36.4649 4.38602 31.4717 4.71708 26.4509C5.04815 21.4302 6.99332 16.6509 10.2625 12.826C13.5317 9.0011 17.9497 6.33541 22.8576 5.22653C27.7656 4.11764 32.9005 4.62497 37.4965 6.67286" stroke="#2487BF" stroke-width="5.91667" stroke-linecap="round" stroke-linejoin="round"/>
<path d="M51.3333 9.3335L28 32.6902L21 25.6902" stroke="#2487BF" stroke-width="5.91667" stroke-linecap="round" stroke-linejoin="round"/>
</svg>
