<svg width="20" height="20" viewBox="0 0 20 20" fill="none" xmlns="http://www.w3.org/2000/svg">
<path fill-rule="evenodd" clip-rule="evenodd" d="M10 0.00100005C4.477 0.00100005 1.65574e-06 4.478 1.65574e-06 10.001C-0.000846144 11.4744 0.323896 12.9297 0.951002 14.263L0.0210016 18.8C-0.0121094 18.962 -0.00453626 19.1297 0.0430431 19.288C0.0906225 19.4464 0.176723 19.5904 0.293638 19.7074C0.410553 19.8243 0.554634 19.9104 0.712983 19.958C0.871332 20.0055 1.03901 20.0131 1.201 19.98L5.738 19.05C7.032 19.66 8.478 20 10 20C15.523 20 20 15.524 20 10C20 4.478 15.523 0 10 0" fill="#2487BF"/>
<path d="M11.1719 5.44531V14H9.61914V7.25586L7.5625 7.93555V6.68164L10.9961 5.44531H11.1719Z" fill="white"/>
</svg>
