<svg width="56" height="56" viewBox="0 0 56 56" fill="none" xmlns="http://www.w3.org/2000/svg">
<path d="M7 14H11.6667H49" stroke="#F12711" stroke-width="4" stroke-linecap="round" stroke-linejoin="round"/>
<path d="M44.3337 13.9998V46.6665C44.3337 47.9042 43.842 49.0912 42.9668 49.9663C42.0917 50.8415 40.9047 51.3332 39.667 51.3332H16.3337C15.096 51.3332 13.909 50.8415 13.0338 49.9663C12.1587 49.0912 11.667 47.9042 11.667 46.6665V13.9998M18.667 13.9998V9.33317C18.667 8.09549 19.1587 6.90851 20.0338 6.03334C20.909 5.15817 22.096 4.6665 23.3337 4.6665H32.667C33.9047 4.6665 35.0917 5.15817 35.9668 6.03334C36.842 6.90851 37.3337 8.09549 37.3337 9.33317V13.9998" stroke="#F12711" stroke-width="4" stroke-linecap="round" stroke-linejoin="round"/>
<path d="M23.333 25.6665V39.6665" stroke="#F12711" stroke-width="4" stroke-linecap="round" stroke-linejoin="round"/>
<path d="M32.667 25.6665V39.6665" stroke="#F12711" stroke-width="4" stroke-linecap="round" stroke-linejoin="round"/>
</svg>
